# xmcd
#
# Track frame offsets:
#	150
#	14833
#	31202
#	44735
#
# Disc length: 856 seconds
#
# Revision: 0
# Processed by: cddbd v1.5.2PL0 Copyright (c) Steve Scherf et al.
# Submitted via: dBpowerAMP V4.0
#
DISCID=32035604
DTITLE=Mick Fleetwood - Blue Again Bonus CD
DYEAR=2008
DGENRE=Blues
TTITLE0=Albatross
TTITLE1=Napili Noctourne
TTITLE2=The Supernatural
TTITLE3=La Mer D'Amour
EXTD=
EXTT0=
EXTT1=
EXTT2=
EXTT3=
PLAYORDER=
